<svg width="142" height="59" viewBox="0 0 142 59" fill="none" xmlns="http://www.w3.org/2000/svg">
<path d="M14.32 28.6C11.7067 28.6 9.30667 27.9867 7.12 26.76C4.93333 25.5333 3.2 23.84 1.92 21.68C0.64 19.4933 0 17.0267 0 14.28C0 11.56 0.64 9.12 1.92 6.96C3.2 4.77333 4.93333 3.06666 7.12 1.84C9.30667 0.613333 11.7067 0 14.32 0C16.96 0 19.36 0.613333 21.52 1.84C23.7067 3.06666 25.4267 4.77333 26.68 6.96C27.96 9.12 28.6 11.56 28.6 14.28C28.6 17.0267 27.96 19.4933 26.68 21.68C25.4267 23.84 23.7067 25.5333 21.52 26.76C19.3333 27.9867 16.9333 28.6 14.32 28.6ZM14.32 23.6C16 23.6 17.48 23.2267 18.76 22.48C20.04 21.7067 21.04 20.6133 21.76 19.2C22.48 17.7867 22.84 16.1467 22.84 14.28C22.84 12.4133 22.48 10.7867 21.76 9.4C21.04 7.98667 20.04 6.90667 18.76 6.16C17.48 5.41333 16 5.04 14.32 5.04C12.64 5.04 11.1467 5.41333 9.84 6.16C8.56 6.90667 7.56 7.98667 6.84 9.4C6.12 10.7867 5.76 12.4133 5.76 14.28C5.76 16.1467 6.12 17.7867 6.84 19.2C7.56 20.6133 8.56 21.7067 9.84 22.48C11.1467 23.2267 12.64 23.6 14.32 23.6Z" fill="#DDE6ED"/>
<path d="M38.4863 23.6H51.0462V28.32H32.0062V24L44.4863 5.12H32.0062V0.4H51.0462V4.72L38.4863 23.6Z" fill="#DDE6ED"/>
<path d="M61.4131 0.4V28.32H55.8131V0.4H61.4131Z" fill="#DDE6ED"/>
<path d="M72.5459 4.92V11.92H81.9459V16.36H72.5459V23.76H83.1459V28.32H66.9459V0.359998H83.1459V4.92H72.5459Z" fill="#DDE6ED"/>
<path d="M93.835 23.88H103.035V28.32H88.235V0.4H93.835V23.88Z" fill="#DDE6ED"/>
<path d="M18.2773 58.6C16.3307 58.6 14.5707 58.2667 12.9973 57.6C11.4507 56.9333 10.224 55.9733 9.31734 54.72C8.41068 53.4667 7.94401 51.9867 7.91734 50.28H13.9173C13.9973 51.4267 14.3973 52.3333 15.1173 53C15.864 53.6667 16.8773 54 18.1573 54C19.464 54 20.4907 53.6933 21.2373 53.08C21.984 52.44 22.3573 51.6133 22.3573 50.6C22.3573 49.7733 22.104 49.0933 21.5973 48.56C21.0907 48.0267 20.4507 47.6133 19.6773 47.32C18.9307 47 17.8907 46.6533 16.5573 46.28C14.744 45.7467 13.264 45.2267 12.1173 44.72C10.9973 44.1867 10.024 43.4 9.19734 42.36C8.39734 41.2933 7.99734 39.88 7.99734 38.12C7.99734 36.4667 8.41068 35.0267 9.23734 33.8C10.064 32.5733 11.224 31.64 12.7173 31C14.2107 30.3333 15.9173 30 17.8373 30C20.7173 30 23.0507 30.7067 24.8373 32.12C26.6507 33.5067 27.6507 35.4533 27.8373 37.96H21.6773C21.624 37 21.2107 36.2133 20.4373 35.6C19.6907 34.96 18.6907 34.64 17.4373 34.64C16.344 34.64 15.464 34.92 14.7973 35.48C14.1573 36.04 13.8373 36.8533 13.8373 37.92C13.8373 38.6667 14.0773 39.2933 14.5573 39.8C15.064 40.28 15.6773 40.68 16.3973 41C17.144 41.2933 18.184 41.64 19.5173 42.04C21.3307 42.5733 22.8107 43.1067 23.9573 43.64C25.104 44.1733 26.0907 44.9733 26.9173 46.04C27.744 47.1067 28.1573 48.5067 28.1573 50.24C28.1573 51.7333 27.7707 53.12 26.9973 54.4C26.224 55.68 25.0907 56.7067 23.5973 57.48C22.104 58.2267 20.3307 58.6 18.2773 58.6Z" fill="#DDE6ED"/>
<path d="M45.9723 58.6C43.359 58.6 40.959 57.9867 38.7723 56.76C36.5857 55.5333 34.8523 53.84 33.5723 51.68C32.2923 49.4933 31.6523 47.0267 31.6523 44.28C31.6523 41.56 32.2923 39.12 33.5723 36.96C34.8523 34.7733 36.5857 33.0667 38.7723 31.84C40.959 30.6133 43.359 30 45.9723 30C48.6123 30 51.0123 30.6133 53.1723 31.84C55.359 33.0667 57.079 34.7733 58.3323 36.96C59.6123 39.12 60.2523 41.56 60.2523 44.28C60.2523 47.0267 59.6123 49.4933 58.3323 51.68C57.079 53.84 55.359 55.5333 53.1723 56.76C50.9857 57.9867 48.5857 58.6 45.9723 58.6ZM45.9723 53.6C47.6523 53.6 49.1323 53.2267 50.4123 52.48C51.6923 51.7067 52.6923 50.6133 53.4123 49.2C54.1323 47.7867 54.4923 46.1467 54.4923 44.28C54.4923 42.4133 54.1323 40.7867 53.4123 39.4C52.6923 37.9867 51.6923 36.9067 50.4123 36.16C49.1323 35.4133 47.6523 35.04 45.9723 35.04C44.2923 35.04 42.799 35.4133 41.4923 36.16C40.2123 36.9067 39.2123 37.9867 38.4923 39.4C37.7723 40.7867 37.4123 42.4133 37.4123 44.28C37.4123 46.1467 37.7723 47.7867 38.4923 49.2C39.2123 50.6133 40.2123 51.7067 41.4923 52.48C42.799 53.2267 44.2923 53.6 45.9723 53.6Z" fill="#DDE6ED"/>
<path d="M69.9386 30.4V47.68C69.9386 49.5733 70.4319 51.0267 71.4186 52.04C72.4053 53.0267 73.7919 53.52 75.5786 53.52C77.3919 53.52 78.7919 53.0267 79.7786 52.04C80.7653 51.0267 81.2586 49.5733 81.2586 47.68V30.4H86.8986V47.64C86.8986 50.0133 86.3786 52.0267 85.3386 53.68C84.3253 55.3067 82.9519 56.5333 81.2186 57.36C79.5119 58.1867 77.6053 58.6 75.4986 58.6C73.4186 58.6 71.5253 58.1867 69.8186 57.36C68.1386 56.5333 66.8053 55.3067 65.8186 53.68C64.8319 52.0267 64.3386 50.0133 64.3386 47.64V30.4H69.9386Z" fill="#DDE6ED"/>
<path d="M101.949 58.6C100.003 58.6 98.2426 58.2667 96.6692 57.6C95.1226 56.9333 93.8959 55.9733 92.9892 54.72C92.0826 53.4667 91.6159 51.9867 91.5892 50.28H97.5892C97.6692 51.4267 98.0692 52.3333 98.7892 53C99.5359 53.6667 100.549 54 101.829 54C103.136 54 104.163 53.6933 104.909 53.08C105.656 52.44 106.029 51.6133 106.029 50.6C106.029 49.7733 105.776 49.0933 105.269 48.56C104.763 48.0267 104.123 47.6133 103.349 47.32C102.603 47 101.563 46.6533 100.229 46.28C98.4159 45.7467 96.9359 45.2267 95.7892 44.72C94.6692 44.1867 93.6959 43.4 92.8692 42.36C92.0692 41.2933 91.6692 39.88 91.6692 38.12C91.6692 36.4667 92.0826 35.0267 92.9092 33.8C93.7359 32.5733 94.8959 31.64 96.3892 31C97.8826 30.3333 99.5892 30 101.509 30C104.389 30 106.723 30.7067 108.509 32.12C110.323 33.5067 111.323 35.4533 111.509 37.96H105.349C105.296 37 104.883 36.2133 104.109 35.6C103.363 34.96 102.363 34.64 101.109 34.64C100.016 34.64 99.1359 34.92 98.4692 35.48C97.8292 36.04 97.5092 36.8533 97.5092 37.92C97.5092 38.6667 97.7492 39.2933 98.2292 39.8C98.7359 40.28 99.3492 40.68 100.069 41C100.816 41.2933 101.856 41.64 103.189 42.04C105.003 42.5733 106.483 43.1067 107.629 43.64C108.776 44.1733 109.763 44.9733 110.589 46.04C111.416 47.1067 111.829 48.5067 111.829 50.24C111.829 51.7333 111.443 53.12 110.669 54.4C109.896 55.68 108.763 56.7067 107.269 57.48C105.776 58.2267 104.003 58.6 101.949 58.6Z" fill="#DDE6ED"/>
<path d="M133.804 53H122.684L120.844 58.32H114.964L125.004 30.36H131.524L141.564 58.32H135.644L133.804 53ZM132.284 48.52L128.244 36.84L124.204 48.52H132.284Z" fill="#DDE6ED"/>
</svg>
